<mxfile>
    <diagram id="Q65Mgn-x2YEESJEtVb5E" name="Page-1">
        <mxGraphModel dx="637" dy="486" grid="1" gridSize="10" guides="1" tooltips="1" connect="1" arrows="1" fold="1" page="1" pageScale="1" pageWidth="827" pageHeight="1169" math="0" shadow="0">
            <root>
                <mxCell id="0"/>
                <mxCell id="1" parent="0"/>
                <mxCell id="2" value="Visiteur" style="shape=umlActor;verticalLabelPosition=bottom;verticalAlign=top;html=1;labelBackgroundColor=none;labelBorderColor=none;spacingTop=6;spacing=3;shadow=0;fontSize=16;fontStyle=1" vertex="1" parent="1">
                    <mxGeometry x="300" y="240" width="30" height="60" as="geometry"/>
                </mxCell>
                <mxCell id="7" value="Client" style="shape=umlActor;verticalLabelPosition=bottom;verticalAlign=top;html=1;shadow=0;labelBackgroundColor=none;fontSize=18;fontStyle=1;spacingTop=4;" vertex="1" parent="1">
                    <mxGeometry x="120" y="410" width="30" height="60" as="geometry"/>
                </mxCell>
                <mxCell id="8" value="Admin" style="shape=umlActor;verticalLabelPosition=bottom;verticalAlign=top;html=1;shadow=0;labelBackgroundColor=none;fontSize=18;fontStyle=1;spacingTop=4;" vertex="1" parent="1">
                    <mxGeometry x="100" y="110" width="30" height="60" as="geometry"/>
                </mxCell>
                <mxCell id="9" value="" style="endArrow=open;endFill=1;endSize=12;html=1;fontSize=18;" edge="1" parent="1" source="8" target="2">
                    <mxGeometry width="160" relative="1" as="geometry">
                        <mxPoint x="160" y="160" as="sourcePoint"/>
                        <mxPoint x="300" y="250" as="targetPoint"/>
                    </mxGeometry>
                </mxCell>
                <mxCell id="11" value="" style="endArrow=open;endFill=1;endSize=12;html=1;fontSize=18;" edge="1" parent="1" source="7" target="2">
                    <mxGeometry width="160" relative="1" as="geometry">
                        <mxPoint x="140" y="158.57142857142856" as="sourcePoint"/>
                        <mxPoint x="320" y="261.42857142857144" as="targetPoint"/>
                    </mxGeometry>
                </mxCell>
                <mxCell id="15" value="Consulter Produits" style="ellipse;whiteSpace=wrap;html=1;align=center;shadow=0;labelBackgroundColor=none;fontSize=18;" vertex="1" parent="1">
                    <mxGeometry x="480" y="90" width="100" height="100" as="geometry"/>
                </mxCell>
                <mxCell id="18" value="" style="endArrow=none;html=1;rounded=0;fontSize=18;" edge="1" parent="1" source="2" target="15">
                    <mxGeometry relative="1" as="geometry">
                        <mxPoint x="270" y="280" as="sourcePoint"/>
                        <mxPoint x="430" y="280" as="targetPoint"/>
                    </mxGeometry>
                </mxCell>
                <mxCell id="19" value="Contacter Admin" style="ellipse;whiteSpace=wrap;html=1;align=center;shadow=0;labelBackgroundColor=none;fontSize=18;" vertex="1" parent="1">
                    <mxGeometry x="480" y="250" width="100" height="100" as="geometry"/>
                </mxCell>
                <mxCell id="20" value="Creer un compte et devenir client" style="ellipse;whiteSpace=wrap;html=1;align=center;shadow=0;labelBackgroundColor=none;fontSize=18;" vertex="1" parent="1">
                    <mxGeometry x="480" y="400" width="100" height="100" as="geometry"/>
                </mxCell>
                <mxCell id="21" value="" style="endArrow=none;html=1;rounded=0;fontSize=18;" edge="1" parent="1" source="2" target="20">
                    <mxGeometry relative="1" as="geometry">
                        <mxPoint x="280" y="470.00023255813954" as="sourcePoint"/>
                        <mxPoint x="437.21340082097277" y="374.94096694545846" as="targetPoint"/>
                    </mxGeometry>
                </mxCell>
                <mxCell id="22" value="" style="endArrow=none;html=1;rounded=0;fontSize=18;" edge="1" parent="1" source="2" target="19">
                    <mxGeometry relative="1" as="geometry">
                        <mxPoint x="320" y="425.06023255813955" as="sourcePoint"/>
                        <mxPoint x="477.21340082097277" y="330.00096694545846" as="targetPoint"/>
                    </mxGeometry>
                </mxCell>
            </root>
        </mxGraphModel>
    </diagram>
</mxfile>